<!--?xml version="1.0" standalone="no"?-->
              <svg id="sw-js-blob-svg" viewBox="0 0 100 100" xmlns="http://www.w3.org/2000/svg" version="1.1">
                    <defs> 
                        <linearGradient id="sw-gradient" x1="0" x2="1" y1="1" y2="0">
                            <stop id="stop1" stop-color="rgba(11, 38, 82, 1)" offset="0%"></stop>
                            <stop id="stop2" stop-color="rgba(11, 38, 82, 1)" offset="100%"></stop>
                        </linearGradient>
                    </defs>
                <path fill="url(#sw-gradient)" d="M14.9,-28C19.8,-23,24.5,-20,27.4,-15.6C30.3,-11.3,31.4,-5.6,29.4,-1.1C27.4,3.4,22.4,6.7,18.6,9.4C14.8,12.2,12.1,14.3,9.2,20C6.3,25.7,3.1,35,-1.3,37.1C-5.7,39.3,-11.3,34.4,-15.1,29.1C-18.8,23.9,-20.6,18.4,-23.8,13.5C-26.9,8.6,-31.4,4.3,-34.6,-1.9C-37.9,-8.1,-40,-16.2,-35.6,-18.8C-31.1,-21.5,-20.1,-18.6,-13.1,-22.3C-6,-26.1,-3,-36.5,1,-38.3C5,-40,10,-33,14.9,-28Z" width="100%" height="100%" transform="translate(50 50)" stroke-width="0" style="transition: all 0.3s ease 0s;" stroke="url(#sw-gradient)"></path>
              </svg>