<svg width="145.95" height="38.9" viewBox="0 0 145.95 38.9" xmlns="http://www.w3.org/2000/svg"><g id="svgGroup" stroke-linecap="round" fill-rule="evenodd" font-size="9pt" stroke="#000000" stroke-width="0.5mm" fill="#ffffff" style="stroke: #000; stroke-width: .5mm; fill: #fff"><path d="M 13.9 36.8 L 0 9.75 L 4.2 7.55 L 15.9 30.45 L 29.65 1.45 L 33.9 3.5 L 18.15 36.75 L 13.9 36.8 Z" id="0" vector-effect="non-scaling-stroke"></path><path d="M 39.15 38.9 L 33.15 36.8 L 35.3 30.85 L 41.3 32.9 L 39.15 38.9 Z" id="1" vector-effect="non-scaling-stroke"></path><path d="M 55.55 23.7 L 66.6 21.8 L 67.45 26.5 L 53.15 28.9 L 48.85 38.35 L 44.55 36.45 L 61.2 0.05 L 65.5 0 L 80.7 31.95 L 76.45 34 L 63.35 6.6 L 55.55 23.7 Z" id="2" vector-effect="non-scaling-stroke"></path><path d="M 89.95 38.9 L 83.95 36.8 L 86.1 30.85 L 92.1 32.9 L 89.95 38.9 Z" id="3" vector-effect="non-scaling-stroke"></path><path d="M 129.4 35.7 L 124.85 10.65 L 115.8 26.65 L 111.6 26.45 L 104.8 11.65 L 100.5 35.7 L 95.85 34.85 L 101.5 3.4 L 105.9 2.85 L 114 20.3 L 124 2.65 L 128.35 3.4 L 134.05 34.85 L 129.4 35.7 Z" id="4" vector-effect="non-scaling-stroke"></path><path d="M 143.8 38.9 L 137.8 36.8 L 139.95 30.85 L 145.95 32.9 L 143.8 38.9 Z" id="5" vector-effect="non-scaling-stroke"></path></g></svg>